<svg width="50" height="50" viewBox="0 0 50 50" fill="none" xmlns="http://www.w3.org/2000/svg">
<path d="M14.8948 13.43C12.2956 14.0294 10.3516 16.3626 10.3516 19.1406C10.3516 19.3108 10.3602 19.4825 10.3773 19.657C9.42178 20.7242 8.88672 22.0975 8.88672 23.5352C8.88672 25.1159 9.51758 26.595 10.6177 27.6822C10.4402 28.2372 10.3516 28.8108 10.3516 29.3945C10.3516 31.732 11.7148 33.7876 13.8134 34.7203C14.7476 36.8203 16.8046 38.2812 19.1406 38.2812H23.5352V29.6063C23.1468 29.7427 22.8643 29.9285 22.5796 30.1227C22.0975 30.4503 21.4967 30.8594 20.6055 30.8594C19.0576 30.8594 17.2609 29.4832 16.746 29.0627L18.6028 26.7953C19.3009 27.3646 20.2751 27.9168 20.6084 27.9297C20.6155 27.9154 20.7986 27.7909 20.9317 27.7008C21.4761 27.3301 22.2324 26.8178 23.5353 26.5869V20.8171C23.1469 20.9535 22.8644 21.1394 22.5797 21.3335C22.0975 21.6612 21.4967 22.0703 20.6055 22.0703C19.0576 22.0703 17.2609 20.6941 16.746 20.2736L18.6028 18.0063C19.3009 18.5756 20.2751 19.1277 20.6084 19.1406C20.6155 19.1264 20.7986 19.0019 20.9317 18.9117C21.4761 18.541 22.2324 18.0287 23.5353 17.7979V9.70996C22.6689 9.20352 21.6792 8.88672 20.6056 8.88672C17.8274 8.88672 15.4942 10.8308 14.8948 13.43Z" fill="#28C0D7"/>
<path d="M29.3945 8.88672C28.3209 8.88672 27.3312 9.20361 26.4648 9.70996V17.7979C27.7677 18.0287 28.524 18.541 29.0684 18.9117C29.2014 19.0019 29.3845 19.1263 29.4488 19.1492C29.7221 19.1277 30.7148 18.567 31.3943 18.0077L33.254 20.2736C32.7391 20.6941 30.9424 22.0703 29.3945 22.0703C28.5033 22.0703 27.9025 21.6612 27.4204 21.3336C27.1357 21.1394 26.8532 20.9536 26.4648 20.8172V26.587C27.7677 26.8179 28.524 27.3302 29.0684 27.7009C29.2014 27.791 29.3845 27.9154 29.4488 27.9384C29.7221 27.9169 30.7148 27.3562 31.3943 26.7969L33.254 29.0628C32.7391 29.4832 30.9424 30.8594 29.3945 30.8594C28.5033 30.8594 27.9025 30.4503 27.4204 30.1227C27.1357 29.9284 26.8532 29.7427 26.4648 29.6063V38.2812H30.8594C33.1969 38.2812 35.2524 36.8203 36.1852 34.7203C38.2852 33.7876 39.6484 31.732 39.6484 29.3945C39.6484 28.8108 39.5598 28.2372 39.3823 27.6822C40.4824 26.595 41.1133 25.1159 41.1133 23.5352C41.1133 22.0975 40.5782 20.7242 39.6227 19.657C39.6398 19.4825 39.6484 19.3108 39.6484 19.1406C39.6484 16.3626 37.7044 14.0294 35.1052 13.43C34.5058 10.8308 32.1726 8.88672 29.3945 8.88672Z" fill="#28C0D7"/>
<path d="M23.5352 0H26.4648V5.95703H23.5352V0Z" fill="#28C0D7"/>
<path d="M0 23.5352H5.95703V26.4648H0V23.5352Z" fill="#28C0D7"/>
<path d="M44.043 23.5352H50V26.4648H44.043V23.5352Z" fill="#28C0D7"/>
<path d="M6.35449 8.42767L8.42558 6.35659L12.5677 10.4988L10.4967 12.5698L6.35449 8.42767Z" fill="#28C0D7"/>
<path d="M37.4248 10.5021L41.567 6.35991L43.638 8.43099L39.4959 12.5732L37.4248 10.5021Z" fill="#28C0D7"/>
<path d="M29.1249 47.0703H20.8755C21.4822 48.7717 23.093 50 25.0002 50C26.9074 50 28.5182 48.7717 29.1249 47.0703Z" fill="#28C0D7"/>
<path d="M17.6758 41.2109H32.3242V44.1406H17.6758V41.2109Z" fill="#28C0D7"/>
</svg>
