<svg width="50" height="50" viewBox="0 0 50 50" fill="none" xmlns="http://www.w3.org/2000/svg">
<g clip-path="url(#clip0_1302_344)">
<path d="M6.27607 23.431C6.27607 13.9565 13.9566 6.27598 23.4311 6.27598C32.9055 6.27598 40.5859 13.9565 40.5859 23.431C40.5859 25.6859 40.15 27.8389 39.3593 29.8111H45.9824C46.5552 27.7827 46.862 25.6427 46.862 23.431C46.8619 10.4904 36.3716 0 23.431 0C10.4903 0 0 10.4904 0 23.431C0 36.3715 10.4904 46.8619 23.431 46.8619C25.6427 46.8619 27.7827 46.5551 29.8111 45.9823V39.3592C27.8388 40.15 25.6858 40.5858 23.431 40.5858C13.9565 40.5859 6.27607 32.9054 6.27607 23.431Z" fill="#28C0D7"/>
<path d="M36.1479 29.8105C37.1126 27.8915 37.6564 25.7246 37.6564 23.4304C37.6564 15.574 31.2876 9.20508 23.4312 9.20508C15.5747 9.20508 9.20605 15.5739 9.20605 23.4303C9.20605 31.2866 15.5749 37.6556 23.4312 37.6556C25.7255 37.6556 27.8925 37.1116 29.8114 36.147V33.9925C29.8114 31.6865 31.6874 29.8105 33.9934 29.8105H36.1479ZM24.8961 30.9991V31.2753C24.8961 32.0843 24.2402 32.7401 23.4312 32.7401C22.6223 32.7401 21.9664 32.0843 21.9664 31.2753V30.9805C21.0856 30.7454 20.4154 30.3312 20.042 29.9576C19.4606 29.395 19.4455 28.4676 20.0082 27.8863C20.5708 27.305 21.4978 27.2903 22.079 27.853C22.0974 27.8689 22.5382 28.2416 23.4312 28.2416C24.9558 28.2416 25.4968 27.3403 25.4968 26.5685C25.4968 25.7966 24.9558 24.8952 23.4312 24.8952C20.1519 24.8952 18.436 22.5797 18.436 20.2923C18.436 18.3743 19.6432 16.4372 21.9664 15.8614V15.5853C21.9664 14.7763 22.6223 14.1204 23.4312 14.1204C24.2402 14.1204 24.8961 14.7763 24.8961 15.5853V15.8801C25.7769 16.1151 26.4471 16.5294 26.8205 16.9029C27.4019 17.4655 27.417 18.393 26.8543 18.9742C26.2917 19.5556 25.3647 19.5702 24.7835 19.0075C24.7651 18.9916 24.3243 18.6189 23.4312 18.6189C21.9067 18.6189 21.3657 19.5202 21.3657 20.2921C21.3657 21.064 21.9067 21.9653 23.4312 21.9653C26.7106 21.9653 28.4265 24.2809 28.4265 26.5683C28.4265 28.4863 27.2193 30.4234 24.8961 30.9991Z" fill="#28C0D7"/>
<path d="M49.6331 43.8386L45.1532 39.3588L49.633 34.879C49.9911 34.5209 50.0983 33.9823 49.9045 33.5143C49.7106 33.0463 49.2541 32.7412 48.7476 32.7412H33.993C33.3014 32.7412 32.7407 33.3019 32.7407 33.9935V48.748C32.7407 49.2546 33.0458 49.7111 33.5138 49.905C33.9817 50.0987 34.5203 49.9916 34.8784 49.6335L39.3582 45.1537L43.838 49.6335C44.327 50.1225 45.1199 50.1225 45.609 49.6335L49.633 45.6095C50.1221 45.1206 50.1221 44.3276 49.6331 43.8386Z" fill="#28C0D7"/>
</g>
<defs>
<clipPath id="clip0_1302_344">
<rect width="50" height="50" fill="white"/>
</clipPath>
</defs>
</svg>
