<svg width="50" height="50" viewBox="0 0 50 50" fill="none" xmlns="http://www.w3.org/2000/svg">
<g clip-path="url(#clip0_1302_201)">
<path d="M8.33334 37.5C12.9357 37.5 16.6667 33.769 16.6667 29.1667C16.6667 24.5643 12.9357 20.8333 8.33334 20.8333C3.73096 20.8333 0 24.5643 0 29.1667C0 33.769 3.73096 37.5 8.33334 37.5Z" fill="#28C0D7"/>
<path d="M47.9168 22.9167H35.4168C34.2662 22.9167 33.3335 23.8494 33.3335 25V37.5C33.3335 38.6506 34.2662 39.5834 35.4168 39.5834H47.9168C49.0674 39.5834 50.0002 38.6506 50.0002 37.5V25C50.0002 23.8494 49.0674 22.9167 47.9168 22.9167Z" fill="#28C0D7"/>
<path d="M20.0521 14.5833H32.5521C32.9208 14.5833 33.2829 14.4855 33.6014 14.2998C33.9199 14.1142 34.1834 13.8473 34.365 13.5265C34.5467 13.2056 34.6399 12.8424 34.6353 12.4737C34.6306 12.1051 34.5282 11.7443 34.3386 11.4281L28.0886 1.01146C27.9035 0.702962 27.6416 0.447652 27.3286 0.270393C27.0155 0.0931349 26.6619 -3.05176e-05 26.3021 -3.05176e-05C25.9423 -3.05176e-05 25.5887 0.0931349 25.2756 0.270393C24.9626 0.447652 24.7007 0.702962 24.5156 1.01146L18.2656 11.4281C18.076 11.7443 17.9736 12.1051 17.9689 12.4737C17.9643 12.8424 18.0575 13.2056 18.2392 13.5265C18.4208 13.8473 18.6843 14.1142 19.0028 14.2998C19.3214 14.4855 19.6834 14.5833 20.0521 14.5833Z" fill="#28C0D7"/>
<path d="M41.7991 16.6667H39.5834V20.8333H45.8334C46.2707 20.8333 46.6968 20.6957 47.0515 20.4401C47.4062 20.1844 47.6715 19.8236 47.8097 19.4088L49.8931 13.1588L45.9405 11.8411L45.179 14.1255C43.1618 10.3828 40.1428 7.27518 36.46 5.15051L34.3735 8.75702C37.5743 10.604 40.1577 13.3558 41.7991 16.6667Z" fill="#28C0D7"/>
<path d="M25 43.75C22.5305 43.7502 20.0851 43.2635 17.8039 42.3177L20.364 41.5862L19.2182 37.58L11.9265 39.6633C11.4123 39.8102 10.9742 40.1493 10.7031 40.6103C10.4319 41.0714 10.3485 41.619 10.47 42.1399L12.2929 49.9524L16.3508 49.0055L15.6299 45.9167C18.9392 47.3969 22.5522 48.0718 26.1727 47.8862C29.7932 47.7006 33.3182 46.6598 36.4588 44.849L34.3724 41.2425C31.5225 42.8865 28.2901 43.7514 25 43.75Z" fill="#28C0D7"/>
<path d="M3.13281 18.125L7.10938 19.375C8.11963 16.1563 9.98239 13.2711 12.5 11.0255V14.5833H16.6667V6.24999C16.6667 5.69746 16.4472 5.16755 16.0565 4.77685C15.6658 4.38615 15.1359 4.16666 14.5833 4.16666H6.25V8.33332H9.26381C6.41514 11.0182 4.30399 14.3898 3.13281 18.125Z" fill="#28C0D7"/>
</g>
<defs>
<clipPath id="clip0_1302_201">
<rect width="50" height="50" fill="white"/>
</clipPath>
</defs>
</svg>
