<svg width="50" height="50" viewBox="0 0 50 50" fill="none" xmlns="http://www.w3.org/2000/svg">
<path d="M18.4856 0C13.5608 0 9.5542 3.94605 9.5542 8.79637C9.5542 13.6467 13.5608 17.5927 18.4856 17.5927C23.4104 17.5927 27.4169 13.6467 27.4169 8.79637C27.4169 3.94605 23.4104 0 18.4856 0Z" fill="#28C0D7"/>
<path d="M24.0759 20.8223L19.2573 26.8404C18.743 27.3341 18.2286 27.3341 17.7142 26.8404L12.8958 20.8224C7.68774 21.0665 3.52588 25.3772 3.52588 30.641V40.9826C3.52588 41.8068 4.21092 42.4773 5.05312 42.4773H9.52567V36.9147C9.52567 36.3706 9.96776 35.9294 10.5132 35.9294C11.0586 35.9294 11.5007 36.3706 11.5007 36.9147V42.4773H21.6854L30.5779 26.5991C30.8892 26.0431 31.3327 25.596 31.8625 25.2885C30.142 22.6305 27.2693 20.97 24.0759 20.8223Z" fill="#28C0D7"/>
<path d="M46.2887 47.7857L34.962 27.5609C34.3928 26.5448 32.8709 26.5448 32.3017 27.5609L20.975 47.7857C20.4195 48.7774 21.1807 50 22.3051 50H44.9586C46.083 50 46.8439 48.7774 46.2887 47.7857ZM34.6193 46.9619H32.6444V44.3339H34.6193V46.9619ZM34.6193 41.95H32.6444V34.1577H34.6193V41.95Z" fill="#28C0D7"/>
</svg>
