<svg width="48" height="50" viewBox="0 0 48 50" fill="none" xmlns="http://www.w3.org/2000/svg">
<path d="M29.6997 43.6934V45.1543C29.6997 46.3169 28.8458 47.284 27.7346 47.4486L27.3746 48.7757C27.1791 49.4959 26.5309 50 25.7799 50H22.2099C21.4589 50 20.8108 49.4959 20.6153 48.7757L20.2655 47.4486C19.1441 47.2737 18.2902 46.3169 18.2902 45.144V43.6831C18.2902 42.9012 18.9178 42.2737 19.6997 42.2737H28.2902C29.0721 42.284 29.6997 42.9115 29.6997 43.6934ZM36.3149 24.0021C36.3149 27.3251 34.998 30.3395 32.8581 32.5514C31.2326 34.2387 30.1832 36.3889 29.8334 38.6831C29.6791 39.6708 28.8252 40.4012 27.8169 40.4012H20.1729C19.175 40.4012 18.3108 39.6811 18.1667 38.6934C17.8067 36.3992 16.747 34.2181 15.1215 32.5412C13.0227 30.3601 11.7161 27.3971 11.6853 24.1358C11.6132 17.284 17.0659 11.7387 23.9178 11.6872C30.7593 11.6358 36.3149 17.1708 36.3149 24.0021ZM25.389 16.5432C25.389 15.7819 24.7717 15.1543 24.0001 15.1543C19.103 15.1543 15.1112 19.1358 15.1112 24.0432C15.1112 24.8045 15.7285 25.4321 16.5001 25.4321C17.2614 25.4321 17.889 24.8148 17.889 24.0432C17.889 20.6687 20.6359 17.9321 24.0001 17.9321C24.7717 17.9321 25.389 17.3148 25.389 16.5432ZM24.0001 7.64403C24.7614 7.64403 25.389 7.02675 25.389 6.25514V1.38889C25.389 0.627572 24.7717 0 24.0001 0C23.2285 0 22.6112 0.617284 22.6112 1.38889V6.25514C22.6112 7.02675 23.2388 7.64403 24.0001 7.64403ZM7.65233 23.9918C7.65233 23.2305 7.03505 22.6029 6.26344 22.6029H1.39719C0.635873 22.6029 0.00830078 23.2202 0.00830078 23.9918C0.00830078 24.7531 0.625585 25.3807 1.39719 25.3807H6.26344C7.03505 25.3807 7.65233 24.7634 7.65233 23.9918ZM46.603 22.6029H41.7367C40.9754 22.6029 40.3478 23.2202 40.3478 23.9918C40.3478 24.7531 40.9651 25.3807 41.7367 25.3807H46.603C47.3643 25.3807 47.9918 24.7634 47.9918 23.9918C47.9918 23.2305 47.3746 22.6029 46.603 22.6029ZM10.4816 35.5556L7.03505 39.0021C6.48978 39.5473 6.48978 40.4218 7.03505 40.9671C7.30254 41.2346 7.66262 41.3683 8.01242 41.3683C8.36221 41.3683 8.72229 41.2346 8.98978 40.9671L12.4363 37.5206C12.9816 36.9753 12.9816 36.1008 12.4363 35.5556C11.9013 35.0103 11.0165 35.0103 10.4816 35.5556ZM36.5412 12.8395C36.891 12.8395 37.2511 12.7058 37.5186 12.4383L40.9651 8.99177C41.5104 8.4465 41.5104 7.57202 40.9651 7.02675C40.4198 6.48148 39.5453 6.48148 39.0001 7.02675L35.5536 10.4733C35.0083 11.0185 35.0083 11.893 35.5536 12.4383C35.8313 12.7058 36.1811 12.8395 36.5412 12.8395ZM10.4816 12.428C10.749 12.6955 11.1091 12.8292 11.4589 12.8292C11.8087 12.8292 12.1688 12.6955 12.4363 12.428C12.9816 11.8827 12.9816 11.0082 12.4363 10.463L8.98978 7.01646C8.44452 6.47119 7.57003 6.47119 7.02476 7.01646C6.47949 7.56173 6.47949 8.43622 7.02476 8.98148L10.4816 12.428ZM37.5186 35.5556C36.9733 35.0103 36.0988 35.0103 35.5536 35.5556C35.0083 36.1008 35.0083 36.9753 35.5536 37.5206L39.0001 40.9671C39.2676 41.2346 39.6276 41.3683 39.9774 41.3683C40.3272 41.3683 40.6873 41.2346 40.9548 40.9671C41.5001 40.4218 41.5001 39.5473 40.9548 39.0021L37.5186 35.5556Z" fill="#28C0D7"/>
</svg>
