<svg width="345" height="345" viewBox="0 0 345 345" fill="none" xmlns="http://www.w3.org/2000/svg">
<path d="M140.85 293.66C141.78 293.66 142.48 293.9 142.95 294.38C143.43 294.85 143.67 295.61 143.67 296.66V302H141.435V297.215C141.435 296.625 141.335 296.185 141.135 295.895C140.935 295.595 140.625 295.445 140.205 295.445C139.615 295.445 139.195 295.655 138.945 296.075C138.695 296.495 138.57 297.1 138.57 297.89V302H136.335V297.215C136.335 296.825 136.29 296.5 136.2 296.24C136.11 295.98 135.975 295.785 135.795 295.655C135.615 295.515 135.385 295.445 135.105 295.445C134.695 295.445 134.37 295.55 134.13 295.76C133.89 295.97 133.72 296.275 133.62 296.675C133.52 297.075 133.47 297.565 133.47 298.145V302H131.235V293.81H132.945L133.245 294.86H133.365C133.535 294.58 133.745 294.355 133.995 294.185C134.245 294.005 134.52 293.875 134.82 293.795C135.13 293.705 135.44 293.66 135.75 293.66C136.35 293.66 136.86 293.76 137.28 293.96C137.7 294.15 138.02 294.45 138.24 294.86H138.435C138.685 294.44 139.03 294.135 139.47 293.945C139.92 293.755 140.38 293.66 140.85 293.66ZM149.347 293.66C150.107 293.66 150.757 293.805 151.297 294.095C151.847 294.385 152.272 294.805 152.572 295.355C152.872 295.905 153.022 296.58 153.022 297.38V298.46H147.742C147.762 299.09 147.947 299.585 148.297 299.945C148.657 300.305 149.152 300.485 149.782 300.485C150.312 300.485 150.792 300.435 151.222 300.335C151.652 300.225 152.097 300.06 152.557 299.84V301.565C152.157 301.765 151.732 301.91 151.282 302C150.842 302.1 150.307 302.15 149.677 302.15C148.857 302.15 148.132 302 147.502 301.7C146.872 301.39 146.377 300.925 146.017 300.305C145.657 299.685 145.477 298.905 145.477 297.965C145.477 297.005 145.637 296.21 145.957 295.58C146.287 294.94 146.742 294.46 147.322 294.14C147.902 293.82 148.577 293.66 149.347 293.66ZM149.362 295.25C148.932 295.25 148.572 295.39 148.282 295.67C148.002 295.95 147.837 296.385 147.787 296.975H150.922C150.922 296.645 150.862 296.35 150.742 296.09C150.632 295.83 150.462 295.625 150.232 295.475C150.002 295.325 149.712 295.25 149.362 295.25ZM157.429 302.15C156.519 302.15 155.774 301.795 155.194 301.085C154.624 300.365 154.339 299.31 154.339 297.92C154.339 296.52 154.629 295.46 155.209 294.74C155.789 294.02 156.549 293.66 157.489 293.66C157.879 293.66 158.224 293.715 158.524 293.825C158.824 293.925 159.079 294.065 159.289 294.245C159.509 294.425 159.694 294.63 159.844 294.86H159.919C159.889 294.7 159.854 294.47 159.814 294.17C159.774 293.86 159.754 293.545 159.754 293.225V290.6H161.989V302H160.279L159.844 300.935H159.754C159.614 301.155 159.434 301.36 159.214 301.55C159.004 301.73 158.754 301.875 158.464 301.985C158.174 302.095 157.829 302.15 157.429 302.15ZM158.209 300.365C158.829 300.365 159.264 300.185 159.514 299.825C159.764 299.455 159.894 298.905 159.904 298.175V297.935C159.904 297.135 159.779 296.525 159.529 296.105C159.289 295.685 158.839 295.475 158.179 295.475C157.689 295.475 157.304 295.69 157.024 296.12C156.744 296.54 156.604 297.15 156.604 297.95C156.604 298.75 156.744 299.355 157.024 299.765C157.304 300.165 157.699 300.365 158.209 300.365ZM166.561 293.81V302H164.326V293.81H166.561ZM165.451 290.6C165.781 290.6 166.066 290.68 166.306 290.84C166.546 290.99 166.666 291.275 166.666 291.695C166.666 292.105 166.546 292.39 166.306 292.55C166.066 292.71 165.781 292.79 165.451 292.79C165.111 292.79 164.821 292.71 164.581 292.55C164.351 292.39 164.236 292.105 164.236 291.695C164.236 291.275 164.351 290.99 164.581 290.84C164.821 290.68 165.111 290.6 165.451 290.6ZM172.257 293.645C173.357 293.645 174.197 293.885 174.777 294.365C175.367 294.835 175.662 295.56 175.662 296.54V302H174.102L173.667 300.89H173.607C173.377 301.18 173.137 301.42 172.887 301.61C172.647 301.8 172.367 301.935 172.047 302.015C171.737 302.105 171.352 302.15 170.892 302.15C170.412 302.15 169.977 302.06 169.587 301.88C169.207 301.69 168.907 301.405 168.687 301.025C168.467 300.635 168.357 300.145 168.357 299.555C168.357 298.685 168.662 298.045 169.272 297.635C169.882 297.215 170.797 296.985 172.017 296.945L173.442 296.9V296.54C173.442 296.11 173.327 295.795 173.097 295.595C172.877 295.395 172.567 295.295 172.167 295.295C171.767 295.295 171.377 295.355 170.997 295.475C170.617 295.585 170.237 295.725 169.857 295.895L169.122 294.38C169.562 294.15 170.047 293.97 170.577 293.84C171.117 293.71 171.677 293.645 172.257 293.645ZM172.572 298.235C171.852 298.255 171.352 298.385 171.072 298.625C170.792 298.865 170.652 299.18 170.652 299.57C170.652 299.91 170.752 300.155 170.952 300.305C171.152 300.445 171.412 300.515 171.732 300.515C172.212 300.515 172.617 300.375 172.947 300.095C173.277 299.805 173.442 299.4 173.442 298.88V298.205L172.572 298.235ZM183.664 299.57C183.664 300.12 183.534 300.59 183.274 300.98C183.014 301.36 182.624 301.65 182.104 301.85C181.584 302.05 180.939 302.15 180.169 302.15C179.599 302.15 179.109 302.11 178.699 302.03C178.289 301.96 177.879 301.84 177.469 301.67V299.825C177.909 300.025 178.384 300.19 178.894 300.32C179.404 300.45 179.854 300.515 180.244 300.515C180.684 300.515 180.994 300.45 181.174 300.32C181.364 300.19 181.459 300.02 181.459 299.81C181.459 299.67 181.419 299.545 181.339 299.435C181.269 299.325 181.109 299.2 180.859 299.06C180.609 298.92 180.219 298.74 179.689 298.52C179.179 298.3 178.759 298.085 178.429 297.875C178.099 297.655 177.854 297.395 177.694 297.095C177.534 296.785 177.454 296.4 177.454 295.94C177.454 295.18 177.749 294.61 178.339 294.23C178.929 293.85 179.714 293.66 180.694 293.66C181.204 293.66 181.689 293.71 182.149 293.81C182.609 293.91 183.084 294.075 183.574 294.305L182.899 295.91C182.629 295.79 182.369 295.685 182.119 295.595C181.869 295.505 181.624 295.435 181.384 295.385C181.154 295.335 180.914 295.31 180.664 295.31C180.334 295.31 180.084 295.355 179.914 295.445C179.754 295.535 179.674 295.67 179.674 295.85C179.674 295.98 179.714 296.1 179.794 296.21C179.884 296.31 180.049 296.42 180.289 296.54C180.539 296.66 180.904 296.82 181.384 297.02C181.854 297.21 182.259 297.41 182.599 297.62C182.939 297.82 183.199 298.075 183.379 298.385C183.569 298.685 183.664 299.08 183.664 299.57ZM187.64 292.925C187.64 293.325 187.625 293.71 187.595 294.08C187.575 294.45 187.555 294.71 187.535 294.86H187.655C187.835 294.58 188.045 294.355 188.285 294.185C188.525 294.005 188.79 293.875 189.08 293.795C189.38 293.705 189.695 293.66 190.025 293.66C190.615 293.66 191.13 293.765 191.57 293.975C192.01 294.185 192.35 294.51 192.59 294.95C192.84 295.39 192.965 295.96 192.965 296.66V302H190.73V297.215C190.73 296.625 190.62 296.185 190.4 295.895C190.19 295.595 189.86 295.445 189.41 295.445C188.96 295.445 188.605 295.55 188.345 295.76C188.095 295.97 187.915 296.275 187.805 296.675C187.695 297.075 187.64 297.565 187.64 298.145V302H185.405V290.6H187.64V292.925ZM202.704 297.89C202.704 298.57 202.609 299.175 202.419 299.705C202.239 300.235 201.974 300.685 201.624 301.055C201.284 301.415 200.869 301.69 200.379 301.88C199.889 302.06 199.334 302.15 198.714 302.15C198.144 302.15 197.614 302.06 197.124 301.88C196.644 301.69 196.229 301.415 195.879 301.055C195.529 300.685 195.254 300.235 195.054 299.705C194.864 299.175 194.769 298.57 194.769 297.89C194.769 296.98 194.929 296.215 195.249 295.595C195.569 294.965 196.029 294.485 196.629 294.155C197.229 293.825 197.939 293.66 198.759 293.66C199.529 293.66 200.209 293.825 200.799 294.155C201.389 294.485 201.854 294.965 202.194 295.595C202.534 296.215 202.704 296.98 202.704 297.89ZM197.049 297.89C197.049 298.43 197.104 298.885 197.214 299.255C197.334 299.615 197.519 299.89 197.769 300.08C198.019 300.26 198.344 300.35 198.744 300.35C199.144 300.35 199.464 300.26 199.704 300.08C199.954 299.89 200.134 299.615 200.244 299.255C200.364 298.885 200.424 298.43 200.424 297.89C200.424 297.35 200.364 296.9 200.244 296.54C200.134 296.18 199.954 295.91 199.704 295.73C199.454 295.55 199.129 295.46 198.729 295.46C198.139 295.46 197.709 295.665 197.439 296.075C197.179 296.475 197.049 297.08 197.049 297.89ZM210.363 299.135C210.323 298.965 210.263 298.715 210.183 298.385C210.113 298.045 210.033 297.685 209.943 297.305C209.853 296.915 209.768 296.56 209.688 296.24C209.608 295.91 209.553 295.67 209.523 295.52H209.463C209.433 295.67 209.378 295.91 209.298 296.24C209.228 296.56 209.148 296.915 209.058 297.305C208.968 297.685 208.883 298.045 208.803 298.385C208.723 298.725 208.663 298.985 208.623 299.165L207.963 302H205.563L203.238 293.81H205.458L206.403 297.44C206.473 297.69 206.533 297.99 206.583 298.34C206.643 298.69 206.698 299.03 206.748 299.36C206.798 299.68 206.833 299.935 206.853 300.125H206.913C206.923 299.985 206.943 299.8 206.973 299.57C207.003 299.33 207.038 299.085 207.078 298.835C207.128 298.585 207.168 298.36 207.198 298.16C207.238 297.95 207.268 297.81 207.288 297.74L208.293 293.81H210.753L211.713 297.74C211.753 297.88 211.798 298.105 211.848 298.415C211.908 298.725 211.958 299.04 211.998 299.36C212.048 299.68 212.073 299.935 212.073 300.125H212.133C212.153 299.955 212.188 299.71 212.238 299.39C212.288 299.06 212.343 298.715 212.403 298.355C212.473 297.995 212.543 297.69 212.613 297.44L213.588 293.81H215.778L213.423 302H210.993L210.363 299.135Z" fill="#B0AEAE"/>
<g filter="url(#filter0_i_1302_400)">
<path d="M345 172.5C345 267.769 267.769 345 172.5 345C77.2309 345 0 267.769 0 172.5C0 77.2309 77.2309 0 172.5 0C267.769 0 345 77.2309 345 172.5ZM24.15 172.5C24.15 254.431 90.5686 320.85 172.5 320.85C254.431 320.85 320.85 254.431 320.85 172.5C320.85 90.5686 254.431 24.15 172.5 24.15C90.5686 24.15 24.15 90.5686 24.15 172.5Z" fill="url(#paint0_linear_1302_400)"/>
</g>
<path d="M103.742 185.704C104.27 185.704 104.666 185.858 104.93 186.166C105.238 186.43 105.392 186.804 105.392 187.288V194.35C105.392 194.79 105.238 195.164 104.93 195.472C104.622 195.824 104.226 196 103.742 196H69.554C69.114 196 68.718 195.846 68.366 195.538C68.058 195.186 67.904 194.79 67.904 194.35V189.4C67.904 188.08 68.454 187.002 69.554 186.166C72.062 183.966 74.372 181.964 76.484 180.16C77.76 179.06 78.794 178.18 79.586 177.52C80.378 176.816 81.126 176.156 81.83 175.54C82.578 174.924 83.238 174.374 83.81 173.89C84.382 173.362 84.8 172.988 85.064 172.768C85.636 172.284 86.296 171.712 87.044 171.052C87.836 170.392 88.562 169.688 89.222 168.94C89.882 168.148 90.432 167.334 90.872 166.498C91.356 165.662 91.598 164.826 91.598 163.99C91.598 160.734 89.97 159.106 86.714 159.106C84.998 159.106 83.678 159.634 82.754 160.69C81.874 161.702 81.28 162.978 80.972 164.518C80.708 165.53 79.96 166.036 78.728 166.036H70.082C69.686 166.036 69.334 165.904 69.026 165.64C68.762 165.376 68.63 165.046 68.63 164.65C68.674 162.142 69.202 159.942 70.214 158.05C71.27 156.114 72.634 154.486 74.306 153.166C75.978 151.846 77.892 150.856 80.048 150.196C82.204 149.492 84.426 149.14 86.714 149.14C89.002 149.14 91.202 149.426 93.314 149.998C95.47 150.526 97.362 151.362 98.99 152.506C100.618 153.65 101.916 155.124 102.884 156.928C103.896 158.732 104.402 160.888 104.402 163.396C104.402 166.608 103.434 169.468 101.498 171.976C101.234 172.284 100.816 172.724 100.244 173.296C99.716 173.868 99.1 174.506 98.396 175.21C97.692 175.914 96.922 176.662 96.086 177.454C95.25 178.246 94.414 179.016 93.578 179.764C91.598 181.612 89.442 183.592 87.11 185.704H103.742ZM116.299 194.02L131.149 160.822C131.193 160.69 131.171 160.58 131.083 160.492C131.039 160.404 130.973 160.36 130.885 160.36H111.877C111.437 160.36 111.041 160.184 110.689 159.832C110.337 159.48 110.161 159.084 110.161 158.644V155.674C110.161 154.134 110.711 152.814 111.811 151.714C112.955 150.614 114.319 150.064 115.903 150.064H142.963C143.403 150.064 143.799 150.218 144.151 150.526C144.503 150.834 144.678 151.23 144.678 151.714V157.852C144.678 157.984 144.657 158.204 144.613 158.512C144.569 158.776 144.503 159.084 144.415 159.436C144.371 159.744 144.305 160.03 144.217 160.294C144.129 160.558 144.041 160.756 143.953 160.888L128.839 194.482C128.355 195.494 127.563 196 126.463 196H117.553C117.157 196 116.827 195.868 116.562 195.604C116.299 195.34 116.167 195.01 116.167 194.614C116.167 194.306 116.211 194.108 116.299 194.02ZM188.375 180.358C188.375 178.466 187.737 176.948 186.461 175.804C185.229 174.66 183.689 174.088 181.841 174.088C180.169 174.088 178.651 174.616 177.287 175.672C176.627 176.2 176.055 176.464 175.571 176.464H166.463C165.495 176.464 165.011 175.98 165.011 175.012L167.387 151.978C167.431 151.406 167.651 150.944 168.047 150.592C168.443 150.196 168.949 149.998 169.565 149.998H196.361C196.845 149.998 197.219 150.152 197.483 150.46C197.791 150.768 197.945 151.164 197.945 151.648V158.248C197.945 158.688 197.791 159.062 197.483 159.37C197.219 159.678 196.845 159.832 196.361 159.832H173.723C174.339 159.832 174.845 159.964 175.241 160.228C175.681 160.448 176.011 160.756 176.231 161.152C176.495 161.504 176.671 161.9 176.759 162.34C176.891 162.736 176.935 163.088 176.891 163.396L176.429 167.95C177.793 166.982 179.157 166.366 180.521 166.102C181.885 165.838 183.403 165.706 185.075 165.706C187.275 165.706 189.343 166.08 191.279 166.828C193.215 167.532 194.887 168.544 196.295 169.864C197.747 171.184 198.891 172.768 199.727 174.616C200.607 176.464 201.047 178.488 201.047 180.688C201.047 183.46 200.497 185.858 199.397 187.882C198.341 189.862 196.911 191.512 195.107 192.832C193.303 194.152 191.235 195.142 188.903 195.802C186.615 196.418 184.261 196.726 181.841 196.726C179.685 196.726 177.485 196.484 175.241 196C172.997 195.472 170.951 194.658 169.103 193.558C167.255 192.414 165.737 190.984 164.549 189.268C163.361 187.508 162.745 185.374 162.701 182.866C162.701 182.47 162.833 182.14 163.097 181.876C163.361 181.612 163.691 181.48 164.087 181.48H173.327C174.383 181.48 175.109 181.898 175.505 182.734C176.077 184.186 176.869 185.242 177.881 185.902C178.937 186.562 180.257 186.892 181.841 186.892C183.821 186.892 185.405 186.298 186.593 185.11C187.781 183.922 188.375 182.338 188.375 180.358ZM211.367 194.02L226.217 160.822C226.261 160.69 226.239 160.58 226.151 160.492C226.107 160.404 226.041 160.36 225.953 160.36H206.945C206.505 160.36 206.109 160.184 205.757 159.832C205.405 159.48 205.229 159.084 205.229 158.644V155.674C205.229 154.134 205.779 152.814 206.879 151.714C208.023 150.614 209.387 150.064 210.971 150.064H238.031C238.471 150.064 238.867 150.218 239.219 150.526C239.571 150.834 239.747 151.23 239.747 151.714V157.852C239.747 157.984 239.725 158.204 239.681 158.512C239.637 158.776 239.571 159.084 239.483 159.436C239.439 159.744 239.373 160.03 239.285 160.294C239.197 160.558 239.109 160.756 239.021 160.888L223.907 194.482C223.423 195.494 222.631 196 221.531 196H212.621C212.225 196 211.895 195.868 211.631 195.604C211.367 195.34 211.235 195.01 211.235 194.614C211.235 194.306 211.279 194.108 211.367 194.02ZM249.588 194.02L264.438 160.822C264.482 160.69 264.46 160.58 264.372 160.492C264.328 160.404 264.262 160.36 264.174 160.36H245.166C244.726 160.36 244.33 160.184 243.978 159.832C243.626 159.48 243.45 159.084 243.45 158.644V155.674C243.45 154.134 244 152.814 245.1 151.714C246.244 150.614 247.608 150.064 249.192 150.064H276.252C276.692 150.064 277.088 150.218 277.44 150.526C277.792 150.834 277.968 151.23 277.968 151.714V157.852C277.968 157.984 277.946 158.204 277.902 158.512C277.858 158.776 277.792 159.084 277.704 159.436C277.66 159.744 277.594 160.03 277.506 160.294C277.418 160.558 277.33 160.756 277.242 160.888L262.128 194.482C261.644 195.494 260.852 196 259.752 196H250.842C250.446 196 250.116 195.868 249.852 195.604C249.588 195.34 249.456 195.01 249.456 194.614C249.456 194.306 249.5 194.108 249.588 194.02Z" fill="#DB2836"/>
<path d="M232.5 230.15C231.69 230.15 231 230.005 230.43 229.715C229.86 229.415 229.425 228.955 229.125 228.335C228.825 227.715 228.675 226.92 228.675 225.95C228.675 224.95 228.845 224.135 229.185 223.505C229.525 222.875 229.995 222.41 230.595 222.11C231.205 221.81 231.905 221.66 232.695 221.66C233.255 221.66 233.74 221.715 234.15 221.825C234.57 221.935 234.935 222.065 235.245 222.215L234.585 223.94C234.235 223.8 233.905 223.685 233.595 223.595C233.295 223.505 232.995 223.46 232.695 223.46C232.305 223.46 231.98 223.555 231.72 223.745C231.46 223.925 231.265 224.2 231.135 224.57C231.015 224.93 230.955 225.385 230.955 225.935C230.955 226.475 231.02 226.925 231.15 227.285C231.29 227.635 231.49 227.9 231.75 228.08C232.01 228.25 232.325 228.335 232.695 228.335C233.165 228.335 233.58 228.275 233.94 228.155C234.3 228.025 234.65 227.85 234.99 227.63V229.535C234.65 229.755 234.29 229.91 233.91 230C233.54 230.1 233.07 230.15 232.5 230.15ZM241.45 221.66C241.56 221.66 241.69 221.665 241.84 221.675C241.99 221.685 242.11 221.7 242.2 221.72L242.035 223.82C241.965 223.8 241.86 223.785 241.72 223.775C241.59 223.755 241.475 223.745 241.375 223.745C241.085 223.745 240.805 223.785 240.535 223.865C240.265 223.935 240.02 224.05 239.8 224.21C239.59 224.37 239.42 224.585 239.29 224.855C239.17 225.115 239.11 225.44 239.11 225.83V230H236.875V221.81H238.57L238.9 223.19H239.005C239.165 222.91 239.365 222.655 239.605 222.425C239.845 222.195 240.12 222.01 240.43 221.87C240.75 221.73 241.09 221.66 241.45 221.66ZM246.769 221.66C247.529 221.66 248.179 221.805 248.719 222.095C249.269 222.385 249.694 222.805 249.994 223.355C250.294 223.905 250.444 224.58 250.444 225.38V226.46H245.164C245.184 227.09 245.369 227.585 245.719 227.945C246.079 228.305 246.574 228.485 247.204 228.485C247.734 228.485 248.214 228.435 248.644 228.335C249.074 228.225 249.519 228.06 249.979 227.84V229.565C249.579 229.765 249.154 229.91 248.704 230C248.264 230.1 247.729 230.15 247.099 230.15C246.279 230.15 245.554 230 244.924 229.7C244.294 229.39 243.799 228.925 243.439 228.305C243.079 227.685 242.899 226.905 242.899 225.965C242.899 225.005 243.059 224.21 243.379 223.58C243.709 222.94 244.164 222.46 244.744 222.14C245.324 221.82 245.999 221.66 246.769 221.66ZM246.784 223.25C246.354 223.25 245.994 223.39 245.704 223.67C245.424 223.95 245.259 224.385 245.209 224.975H248.344C248.344 224.645 248.284 224.35 248.164 224.09C248.054 223.83 247.884 223.625 247.654 223.475C247.424 223.325 247.134 223.25 246.784 223.25ZM254.851 230.15C253.941 230.15 253.196 229.795 252.616 229.085C252.046 228.365 251.761 227.31 251.761 225.92C251.761 224.52 252.051 223.46 252.631 222.74C253.211 222.02 253.971 221.66 254.911 221.66C255.301 221.66 255.646 221.715 255.946 221.825C256.246 221.925 256.501 222.065 256.711 222.245C256.931 222.425 257.116 222.63 257.266 222.86H257.341C257.311 222.7 257.276 222.47 257.236 222.17C257.196 221.86 257.176 221.545 257.176 221.225V218.6H259.411V230H257.701L257.266 228.935H257.176C257.036 229.155 256.856 229.36 256.636 229.55C256.426 229.73 256.176 229.875 255.886 229.985C255.596 230.095 255.251 230.15 254.851 230.15ZM255.631 228.365C256.251 228.365 256.686 228.185 256.936 227.825C257.186 227.455 257.316 226.905 257.326 226.175V225.935C257.326 225.135 257.201 224.525 256.951 224.105C256.711 223.685 256.261 223.475 255.601 223.475C255.111 223.475 254.726 223.69 254.446 224.12C254.166 224.54 254.026 225.15 254.026 225.95C254.026 226.75 254.166 227.355 254.446 227.765C254.726 228.165 255.121 228.365 255.631 228.365ZM263.983 221.81V230H261.748V221.81H263.983ZM262.873 218.6C263.203 218.6 263.488 218.68 263.728 218.84C263.968 218.99 264.088 219.275 264.088 219.695C264.088 220.105 263.968 220.39 263.728 220.55C263.488 220.71 263.203 220.79 262.873 220.79C262.533 220.79 262.243 220.71 262.003 220.55C261.773 220.39 261.658 220.105 261.658 219.695C261.658 219.275 261.773 218.99 262.003 218.84C262.243 218.68 262.533 218.6 262.873 218.6ZM269.768 228.365C270.018 228.365 270.258 228.34 270.488 228.29C270.718 228.24 270.948 228.18 271.178 228.11V229.775C270.938 229.875 270.638 229.96 270.278 230.03C269.928 230.11 269.543 230.15 269.123 230.15C268.633 230.15 268.193 230.07 267.803 229.91C267.423 229.75 267.118 229.475 266.888 229.085C266.668 228.685 266.558 228.135 266.558 227.435V223.49H265.493V222.545L266.723 221.795L267.368 220.07H268.793V221.81H271.088V223.49H268.793V227.435C268.793 227.745 268.883 227.98 269.063 228.14C269.243 228.29 269.478 228.365 269.768 228.365ZM278.537 227.57C278.537 228.12 278.407 228.59 278.147 228.98C277.887 229.36 277.497 229.65 276.977 229.85C276.457 230.05 275.812 230.15 275.042 230.15C274.472 230.15 273.982 230.11 273.572 230.03C273.162 229.96 272.752 229.84 272.342 229.67V227.825C272.782 228.025 273.257 228.19 273.767 228.32C274.277 228.45 274.727 228.515 275.117 228.515C275.557 228.515 275.867 228.45 276.047 228.32C276.237 228.19 276.332 228.02 276.332 227.81C276.332 227.67 276.292 227.545 276.212 227.435C276.142 227.325 275.982 227.2 275.732 227.06C275.482 226.92 275.092 226.74 274.562 226.52C274.052 226.3 273.632 226.085 273.302 225.875C272.972 225.655 272.727 225.395 272.567 225.095C272.407 224.785 272.327 224.4 272.327 223.94C272.327 223.18 272.622 222.61 273.212 222.23C273.802 221.85 274.587 221.66 275.567 221.66C276.077 221.66 276.562 221.71 277.022 221.81C277.482 221.91 277.957 222.075 278.447 222.305L277.772 223.91C277.502 223.79 277.242 223.685 276.992 223.595C276.742 223.505 276.497 223.435 276.257 223.385C276.027 223.335 275.787 223.31 275.537 223.31C275.207 223.31 274.957 223.355 274.787 223.445C274.627 223.535 274.547 223.67 274.547 223.85C274.547 223.98 274.587 224.1 274.667 224.21C274.757 224.31 274.922 224.42 275.162 224.54C275.412 224.66 275.777 224.82 276.257 225.02C276.727 225.21 277.132 225.41 277.472 225.62C277.812 225.82 278.072 226.075 278.252 226.385C278.442 226.685 278.537 227.08 278.537 227.57Z" fill="#00889C"/>
<path d="M99.76 96L94.6 79.2H94.48C94.5 79.6 94.53 80.2 94.57 81C94.61 81.8 94.65 82.66 94.69 83.58C94.73 84.48 94.75 85.3 94.75 86.04V96H90.7V74.58H96.88L101.95 90.96H102.04L107.41 74.58H113.59V96H109.36V85.86C109.36 85.18 109.37 84.4 109.39 83.52C109.43 82.64 109.46 81.81 109.48 81.03C109.52 80.23 109.55 79.63 109.57 79.23H109.45L103.93 96H99.76ZM125.391 79.32C126.911 79.32 128.211 79.61 129.291 80.19C130.391 80.77 131.241 81.61 131.841 82.71C132.441 83.81 132.741 85.16 132.741 86.76V88.92H122.181C122.221 90.18 122.591 91.17 123.291 91.89C124.011 92.61 125.001 92.97 126.261 92.97C127.321 92.97 128.281 92.87 129.141 92.67C130.001 92.45 130.891 92.12 131.811 91.68V95.13C131.011 95.53 130.161 95.82 129.261 96C128.381 96.2 127.311 96.3 126.051 96.3C124.411 96.3 122.961 96 121.701 95.4C120.441 94.78 119.451 93.85 118.731 92.61C118.011 91.37 117.651 89.81 117.651 87.93C117.651 86.01 117.971 84.42 118.611 83.16C119.271 81.88 120.181 80.92 121.341 80.28C122.501 79.64 123.851 79.32 125.391 79.32ZM125.421 82.5C124.561 82.5 123.841 82.78 123.261 83.34C122.701 83.9 122.371 84.77 122.271 85.95H128.541C128.541 85.29 128.421 84.7 128.181 84.18C127.961 83.66 127.621 83.25 127.161 82.95C126.701 82.65 126.121 82.5 125.421 82.5ZM141.555 96.3C139.735 96.3 138.245 95.59 137.085 94.17C135.945 92.73 135.375 90.62 135.375 87.84C135.375 85.04 135.955 82.92 137.115 81.48C138.275 80.04 139.795 79.32 141.675 79.32C142.455 79.32 143.145 79.43 143.745 79.65C144.345 79.85 144.855 80.13 145.275 80.49C145.715 80.85 146.085 81.26 146.385 81.72H146.535C146.475 81.4 146.405 80.94 146.325 80.34C146.245 79.72 146.205 79.09 146.205 78.45V73.2H150.675V96H147.255L146.385 93.87H146.205C145.925 94.31 145.565 94.72 145.125 95.1C144.705 95.46 144.205 95.75 143.625 95.97C143.045 96.19 142.355 96.3 141.555 96.3ZM143.115 92.73C144.355 92.73 145.225 92.37 145.725 91.65C146.225 90.91 146.485 89.81 146.505 88.35V87.87C146.505 86.27 146.255 85.05 145.755 84.21C145.275 83.37 144.375 82.95 143.055 82.95C142.075 82.95 141.305 83.38 140.745 84.24C140.185 85.08 139.905 86.3 139.905 87.9C139.905 89.5 140.185 90.71 140.745 91.53C141.305 92.33 142.095 92.73 143.115 92.73ZM159.82 79.62V96H155.35V79.62H159.82ZM157.6 73.2C158.26 73.2 158.83 73.36 159.31 73.68C159.79 73.98 160.03 74.55 160.03 75.39C160.03 76.21 159.79 76.78 159.31 77.1C158.83 77.42 158.26 77.58 157.6 77.58C156.92 77.58 156.34 77.42 155.86 77.1C155.4 76.78 155.17 76.21 155.17 75.39C155.17 74.55 155.4 73.98 155.86 73.68C156.34 73.36 156.92 73.2 157.6 73.2ZM171.21 79.29C173.41 79.29 175.09 79.77 176.25 80.73C177.43 81.67 178.02 83.12 178.02 85.08V96H174.9L174.03 93.78H173.91C173.45 94.36 172.97 94.84 172.47 95.22C171.99 95.6 171.43 95.87 170.79 96.03C170.17 96.21 169.4 96.3 168.48 96.3C167.52 96.3 166.65 96.12 165.87 95.76C165.11 95.38 164.51 94.81 164.07 94.05C163.63 93.27 163.41 92.29 163.41 91.11C163.41 89.37 164.02 88.09 165.24 87.27C166.46 86.43 168.29 85.97 170.73 85.89L173.58 85.8V85.08C173.58 84.22 173.35 83.59 172.89 83.19C172.45 82.79 171.83 82.59 171.03 82.59C170.23 82.59 169.45 82.71 168.69 82.95C167.93 83.17 167.17 83.45 166.41 83.79L164.94 80.76C165.82 80.3 166.79 79.94 167.85 79.68C168.93 79.42 170.05 79.29 171.21 79.29ZM171.84 88.47C170.4 88.51 169.4 88.77 168.84 89.25C168.28 89.73 168 90.36 168 91.14C168 91.82 168.2 92.31 168.6 92.61C169 92.89 169.52 93.03 170.16 93.03C171.12 93.03 171.93 92.75 172.59 92.19C173.25 91.61 173.58 90.8 173.58 89.76V88.41L171.84 88.47ZM195.509 74.58C198.269 74.58 200.279 75.18 201.539 76.38C202.819 77.56 203.459 79.19 203.459 81.27C203.459 82.21 203.319 83.11 203.039 83.97C202.759 84.81 202.289 85.57 201.629 86.25C200.989 86.91 200.139 87.43 199.079 87.81C198.019 88.19 196.709 88.38 195.149 88.38H193.199V96H188.669V74.58H195.509ZM195.269 78.3H193.199V84.66H194.699C195.559 84.66 196.299 84.55 196.919 84.33C197.539 84.11 198.019 83.76 198.359 83.28C198.699 82.8 198.869 82.18 198.869 81.42C198.869 80.36 198.579 79.58 197.999 79.08C197.419 78.56 196.509 78.3 195.269 78.3ZM219.123 96L217.563 90.9H209.763L208.203 96H203.312L210.873 74.49H216.423L224.013 96H219.123ZM214.923 82.11C214.823 81.77 214.693 81.34 214.533 80.82C214.373 80.3 214.213 79.77 214.053 79.23C213.893 78.69 213.763 78.22 213.663 77.82C213.563 78.22 213.423 78.72 213.243 79.32C213.083 79.9 212.923 80.46 212.763 81C212.623 81.52 212.513 81.89 212.433 82.11L210.903 87.09H216.483L214.923 82.11ZM239.355 90.06C239.355 91.32 239.045 92.42 238.425 93.36C237.805 94.3 236.905 95.03 235.725 95.55C234.565 96.05 233.145 96.3 231.465 96.3C230.725 96.3 229.995 96.25 229.275 96.15C228.575 96.05 227.895 95.91 227.235 95.73C226.595 95.53 225.985 95.29 225.405 95.01V90.78C226.425 91.22 227.475 91.63 228.555 92.01C229.655 92.37 230.745 92.55 231.825 92.55C232.565 92.55 233.155 92.45 233.595 92.25C234.055 92.05 234.385 91.78 234.585 91.44C234.805 91.1 234.915 90.71 234.915 90.27C234.915 89.73 234.725 89.27 234.345 88.89C233.985 88.51 233.495 88.16 232.875 87.84C232.255 87.5 231.545 87.14 230.745 86.76C230.245 86.52 229.705 86.24 229.125 85.92C228.545 85.58 227.985 85.17 227.445 84.69C226.925 84.19 226.495 83.59 226.155 82.89C225.815 82.19 225.645 81.35 225.645 80.37C225.645 79.09 225.935 78 226.515 77.1C227.115 76.18 227.955 75.48 229.035 75C230.135 74.52 231.425 74.28 232.905 74.28C234.025 74.28 235.085 74.41 236.085 74.67C237.105 74.93 238.165 75.3 239.265 75.78L237.795 79.32C236.815 78.92 235.935 78.61 235.155 78.39C234.375 78.17 233.575 78.06 232.755 78.06C232.195 78.06 231.715 78.15 231.315 78.33C230.915 78.51 230.605 78.76 230.385 79.08C230.185 79.4 230.085 79.78 230.085 80.22C230.085 80.72 230.235 81.15 230.535 81.51C230.835 81.85 231.285 82.18 231.885 82.5C232.485 82.82 233.235 83.2 234.135 83.64C235.235 84.16 236.165 84.7 236.925 85.26C237.705 85.82 238.305 86.48 238.725 87.24C239.145 88 239.355 88.94 239.355 90.06ZM255.879 90.06C255.879 91.32 255.569 92.42 254.949 93.36C254.329 94.3 253.429 95.03 252.249 95.55C251.089 96.05 249.669 96.3 247.989 96.3C247.249 96.3 246.519 96.25 245.799 96.15C245.099 96.05 244.419 95.91 243.759 95.73C243.119 95.53 242.509 95.29 241.929 95.01V90.78C242.949 91.22 243.999 91.63 245.079 92.01C246.179 92.37 247.269 92.55 248.349 92.55C249.089 92.55 249.679 92.45 250.119 92.25C250.579 92.05 250.909 91.78 251.109 91.44C251.329 91.1 251.439 90.71 251.439 90.27C251.439 89.73 251.249 89.27 250.869 88.89C250.509 88.51 250.019 88.16 249.399 87.84C248.779 87.5 248.069 87.14 247.269 86.76C246.769 86.52 246.229 86.24 245.649 85.92C245.069 85.58 244.509 85.17 243.969 84.69C243.449 84.19 243.019 83.59 242.679 82.89C242.339 82.19 242.169 81.35 242.169 80.37C242.169 79.09 242.459 78 243.039 77.1C243.639 76.18 244.479 75.48 245.559 75C246.659 74.52 247.949 74.28 249.429 74.28C250.549 74.28 251.609 74.41 252.609 74.67C253.629 74.93 254.689 75.3 255.789 75.78L254.319 79.32C253.339 78.92 252.459 78.61 251.679 78.39C250.899 78.17 250.099 78.06 249.279 78.06C248.719 78.06 248.239 78.15 247.839 78.33C247.439 78.51 247.129 78.76 246.909 79.08C246.709 79.4 246.609 79.78 246.609 80.22C246.609 80.72 246.759 81.15 247.059 81.51C247.359 81.85 247.809 82.18 248.409 82.5C249.009 82.82 249.759 83.2 250.659 83.64C251.759 84.16 252.689 84.7 253.449 85.26C254.229 85.82 254.829 86.48 255.249 87.24C255.669 88 255.879 88.94 255.879 90.06Z" fill="url(#paint1_linear_1302_400)"/>
<defs>
<filter id="filter0_i_1302_400" x="0" y="0" width="345" height="349" filterUnits="userSpaceOnUse" color-interpolation-filters="sRGB">
<feFlood flood-opacity="0" result="BackgroundImageFix"/>
<feBlend mode="normal" in="SourceGraphic" in2="BackgroundImageFix" result="shape"/>
<feColorMatrix in="SourceAlpha" type="matrix" values="0 0 0 0 0 0 0 0 0 0 0 0 0 0 0 0 0 0 127 0" result="hardAlpha"/>
<feOffset dy="4"/>
<feGaussianBlur stdDeviation="2"/>
<feComposite in2="hardAlpha" operator="arithmetic" k2="-1" k3="1"/>
<feColorMatrix type="matrix" values="0 0 0 0 0.0984896 0 0 0 0 0.67523 0 0 0 0 0.7625 0 0 0 0.74 0"/>
<feBlend mode="normal" in2="shape" result="effect1_innerShadow_1302_400"/>
</filter>
<linearGradient id="paint0_linear_1302_400" x1="77.05" y1="20.7" x2="408.25" y2="382.95" gradientUnits="userSpaceOnUse">
<stop stop-color="#28C0D7"/>
<stop offset="1" stop-color="#C2E9FB"/>
</linearGradient>
<linearGradient id="paint1_linear_1302_400" x1="88" y1="70.5556" x2="263.704" y2="82.9656" gradientUnits="userSpaceOnUse">
<stop stop-color="#DB2836"/>
<stop offset="1" stop-color="#28C0D7"/>
</linearGradient>
</defs>
</svg>
