<svg width="50" height="50" viewBox="0 0 50 50" fill="none" xmlns="http://www.w3.org/2000/svg">
<path d="M39.3648 24.0311L33.7502 26.6873C33.8218 27.1631 33.8566 27.6437 33.8544 28.1248C33.8544 29.7394 33.4482 28.9998 34.8336 30.3852C38.3544 33.9269 33.7294 39.5519 29.6252 36.8019C28.3002 37.8168 26.7604 38.515 25.1239 38.843C23.4874 39.171 21.7975 39.1201 20.1837 38.6942C18.5699 38.2683 17.0749 37.4787 15.8134 36.3859C14.5518 35.2931 13.5571 33.9261 12.9053 32.3896C12.2536 30.853 11.9622 29.1877 12.0534 27.5211C12.1446 25.8545 12.616 24.2309 13.4315 22.7746C14.247 21.3184 15.385 20.0681 16.7583 19.1195C18.1316 18.1709 19.7037 17.5491 21.3544 17.3019L25.8232 7.86439C25.5107 7.12481 25.1669 7.29148 20.8856 7.29148C18.8752 7.29148 20.969 11.5102 16.7919 13.2498C12.4169 14.9998 11.0106 10.5206 9.63565 11.9477L6.73982 14.8436C5.30232 16.2394 9.80232 17.7081 8.07315 21.9269C7.76826 22.6949 7.27076 23.3714 6.62856 23.8914C5.98636 24.4114 5.22111 24.7572 4.40648 24.8956L2.87523 25.1561C2.65263 25.1911 2.4501 25.3051 2.30472 25.4773C2.15933 25.6495 2.08083 25.8682 2.08357 26.0936V30.2082C2.08357 32.1977 6.31273 30.1456 8.0419 34.2915C8.36696 35.0543 8.49073 35.8879 8.40136 36.7123C8.31199 37.5367 8.01247 38.3243 7.53148 38.9998C5.86482 41.3227 5.82315 40.5415 9.61482 44.354C10.9794 45.7602 12.5523 41.3019 16.719 43.0311C17.484 43.3345 18.1575 43.8306 18.674 44.4713C19.1906 45.112 19.5326 45.8754 19.6669 46.6873L19.9273 48.2186C19.9624 48.4412 20.0764 48.6437 20.2486 48.7891C20.4207 48.9345 20.6395 49.013 20.8648 49.0102H25.0002C27.0107 49.0102 24.9169 44.8436 29.094 43.0519C33.5002 41.2915 34.8544 45.7915 36.2502 44.354L39.1461 41.4582C40.5523 40.0936 36.094 38.5207 37.8232 34.354C38.1292 33.5907 38.6261 32.9187 39.2663 32.4025C39.9065 31.8864 40.6685 31.5432 41.4794 31.4061L43.0107 31.1457C43.2237 31.0997 43.414 30.981 43.549 30.8099C43.684 30.6388 43.7551 30.426 43.7502 30.2082V26.1457C43.7502 24.5102 41.4794 25.5936 39.3648 24.0311Z" fill="#28C0D7"/>
<path d="M18.6253 23.0208C18.0401 23.6068 17.7114 24.401 17.7114 25.2292C17.7114 26.0573 18.0401 26.8516 18.6253 27.4375L21.5733 30.3854C22.1592 30.9706 22.9535 31.2993 23.7816 31.2993C24.6097 31.2993 25.404 30.9706 25.9899 30.3854L29.6774 26.7083L22.3128 19.3438L18.6253 23.0208Z" fill="#28C0D7"/>
<path d="M33.3333 31.8639L30.4167 28.916L27.4688 31.8639L30.4062 34.8014C30.8066 35.1293 31.3146 35.2964 31.8314 35.2703C32.3481 35.2441 32.8367 35.0266 33.2019 34.6601C33.5672 34.2936 33.7829 33.8042 33.8072 33.2874C33.8315 32.7705 33.6626 32.2631 33.3333 31.8639Z" fill="#28C0D7"/>
<path d="M23.521 17.6035L31.4064 25.4889L44.4064 19.3327L29.6772 4.60352L23.521 17.6035Z" fill="#28C0D7"/>
<path d="M35.9585 7.94803L41.0627 13.0522C41.2523 12.3455 41.2525 11.6014 41.0633 10.8946C40.874 10.1879 40.502 9.54341 39.9846 9.02605C39.4673 8.50869 38.8228 8.13668 38.1161 7.94745C37.4093 7.75821 36.6652 7.75841 35.9585 7.94803Z" fill="#28C0D7"/>
<path d="M42.9274 7.12493C43.5004 7.12493 43.5212 6.95827 45.8754 4.6041C46.0715 4.40933 46.1823 4.14462 46.1832 3.8682C46.1842 3.59178 46.0753 3.32629 45.8806 3.13014C45.6858 2.93399 45.4211 2.82325 45.1447 2.82227C44.8682 2.8213 44.6028 2.93017 44.4066 3.12493L42.1983 5.34368C42.052 5.48876 41.952 5.67395 41.911 5.87584C41.87 6.07772 41.8897 6.28725 41.9678 6.4779C42.0458 6.66856 42.1787 6.8318 42.3495 6.94697C42.5203 7.06214 42.7214 7.12407 42.9274 7.12493Z" fill="#28C0D7"/>
<path d="M39.5833 4.16667V1.04167C39.5833 0.7654 39.4736 0.500448 39.2782 0.305097C39.0829 0.109747 38.8179 0 38.5417 0C38.2654 0 38.0004 0.109747 37.8051 0.305097C37.6097 0.500448 37.5 0.7654 37.5 1.04167V4.16667C37.5 4.44293 37.6097 4.70789 37.8051 4.90324C38.0004 5.09859 38.2654 5.20833 38.5417 5.20833C38.8179 5.20833 39.0829 5.09859 39.2782 4.90324C39.4736 4.70789 39.5833 4.44293 39.5833 4.16667Z" fill="#28C0D7"/>
<path d="M47.9167 9.375H44.7917C44.5154 9.375 44.2504 9.48475 44.0551 9.6801C43.8597 9.87545 43.75 10.1404 43.75 10.4167C43.75 10.6929 43.8597 10.9579 44.0551 11.1532C44.2504 11.3486 44.5154 11.4583 44.7917 11.4583H47.9167C48.1929 11.4583 48.4579 11.3486 48.6532 11.1532C48.8486 10.9579 48.9583 10.6929 48.9583 10.4167C48.9583 10.1404 48.8486 9.87545 48.6532 9.6801C48.4579 9.48475 48.1929 9.375 47.9167 9.375Z" fill="#28C0D7"/>
</svg>
