<svg width="40" height="40" viewBox="0 0 40 50" fill="none" xmlns="http://www.w3.org/2000/svg">
<path d="M27.8765 19.805C31.1915 16.7826 35.6745 12.695 36.0831 2.92969H39.043V0H0.957031V2.92969H3.91689C4.32549 12.695 8.8085 16.7826 12.1235 19.805C14.3473 21.8324 15.6055 23.0733 15.6055 25C15.6055 26.9267 14.3473 28.1676 12.1235 30.195C8.8085 33.2174 4.32549 37.305 3.91689 47.0703H0.957031V50H39.043V47.0703H36.0831C35.6745 37.305 31.1915 33.2174 27.8765 30.195C25.6527 28.1676 24.3945 26.9267 24.3945 25C24.3945 23.0733 25.6527 21.8324 27.8765 19.805ZM18.5352 35.9803C18.0827 36.0736 17.6357 36.2095 17.1995 36.3899L8.22715 40.1027C9.69238 36.3771 12.0523 34.2245 14.0974 32.3601C16.3796 30.2793 18.5352 28.314 18.5352 25V35.9803ZM25.9026 32.3601C27.9477 34.2245 30.3075 36.3771 31.7729 40.1026L22.8005 36.3898C22.3643 36.2094 21.9173 36.0735 21.4648 35.9802V25C21.4648 28.314 23.6204 30.2793 25.9026 32.3601ZM8.17568 9.76562C7.46738 7.92002 6.97822 5.6916 6.8502 2.92969H33.1497C33.0217 5.6916 32.5326 7.92002 31.8242 9.76562H8.17568Z" fill="#28C0D7"/>
</svg>
