<svg width="50" height="50" viewBox="0 0 50 50" fill="none" xmlns="http://www.w3.org/2000/svg">
<path d="M25 11.084C22.1733 11.084 19.873 8.78369 19.873 5.95703C19.873 3.13037 22.1733 0.830078 25 0.830078C27.8267 0.830078 30.127 3.13037 30.127 5.95703C30.127 8.78369 27.8267 11.084 25 11.084Z" fill="#28C0D7"/>
<path d="M5.85938 25.7324C2.62783 25.7324 0 23.1046 0 19.873C0 16.6415 2.62783 14.0137 5.85938 14.0137C9.09092 14.0137 11.7188 16.6415 11.7188 19.873C11.7188 23.1046 9.09092 25.7324 5.85938 25.7324Z" fill="#28C0D7"/>
<path d="M44.1406 25.7324C40.9091 25.7324 38.2812 23.1046 38.2812 19.873C38.2812 16.6415 40.9091 14.0137 44.1406 14.0137C47.3722 14.0137 50 16.6415 50 19.873C50 23.1046 47.3722 25.7324 44.1406 25.7324Z" fill="#28C0D7"/>
<path d="M44.1406 49.1699L41.9477 39.6871C41.0415 39.9052 39.967 40.3809 38.2812 40.3809H32.4219C30.8068 40.3809 29.4922 39.0662 29.4922 37.4512C29.4922 35.8361 30.8068 34.5215 32.4219 34.5215H38.2812C39.8883 34.5215 41.2109 33.2209 41.2109 31.5918V30.127C41.2109 27.7037 43.1822 25.7324 45.6055 25.7324C48.0287 25.7324 50 27.7037 50 30.127V49.1699H44.1406Z" fill="#28C0D7"/>
<path d="M0 49.1699V30.127C0 27.7037 1.97129 25.7324 4.39453 25.7324C6.81777 25.7324 8.78906 27.7037 8.78906 30.127V31.5918C8.78906 33.2328 10.1346 34.5215 11.7188 34.5215H17.5781C19.1932 34.5215 20.5078 35.8361 20.5078 37.4512C20.5078 39.0662 19.1932 40.3809 17.5781 40.3809H11.7188C10.0527 40.3809 9.02109 39.9202 8.05234 39.6871L5.85938 49.1699H0Z" fill="#28C0D7"/>
<path d="M11.7188 30.127V31.5918H17.5782C20.8098 31.5918 23.4376 34.2196 23.4376 37.4512C23.4376 40.6827 20.8098 43.3105 17.5782 43.3105H11.7188C11.2253 43.3105 10.7332 43.2791 10.2439 43.2161L8.86621 49.1699H41.134L39.7563 43.2161C39.267 43.2791 38.7749 43.3105 38.2813 43.3105H32.422C29.1904 43.3105 26.5626 40.6827 26.5626 37.4512C26.5626 34.2196 29.1904 31.5918 32.422 31.5918H38.2813V30.127C38.2813 30.0642 38.2983 30.0059 38.2999 29.9435L34.9426 19.873H15.0576L11.7002 29.9435C11.7019 30.0059 11.7188 30.0642 11.7188 30.127Z" fill="#28C0D7"/>
<path d="M32.3242 16.9434V15.4785C32.3242 14.6474 32.091 13.8549 31.6232 13.1053C30.8107 11.8393 29.4289 11.084 27.9297 11.084H22.0703C19.6471 11.084 17.6758 13.0553 17.6758 15.4785V16.9434H32.3242Z" fill="#28C0D7"/>
</svg>
